<?xml version="1.0" standalone="no"?>
<svg xmlns="http://www.w3.org/2000/svg" viewBox="0 0 132.12 36" width="132.12" height="36"><g fill="#2B0548" color="#2B0548" transform="translate(0 6) scale(0.5)"><svg width="44.0" height="48.0" x="0.0" y="0.0" viewBox="0 0 44 48"><path fill="currentColor" fill-rule="evenodd" d="M26.592 7.876c-1.442 3.958-2.352 9.744-2.352 16.195 0 6.393.894 12.136 2.311 16.09-.691.939-1.454 1.46-2.256 1.46-3.13-.003-5.665-7.895-5.665-17.634 0-9.734 2.535-17.63 5.661-17.63.82.001 1.599.546 2.3 1.52M37.084 24.07c.003 6.693-1.663 12.123-3.716 12.123s-3.717-5.43-3.717-12.121c0-6.696 1.664-12.124 3.717-12.127 2.056.003 3.719 5.43 3.716 12.125M21.51 0c2.12.002 4.037 2.67 5.43 6.98 1.172-2.82 2.642-4.504 4.238-4.504 3.83-.005 6.936 9.668 6.934 21.594.002 11.926-3.106 21.597-6.937 21.596-1.607 0-3.089-1.711-4.265-4.573-1.389 4.256-3.296 6.882-5.397 6.884-4.257-.002-7.708-10.74-7.708-23.99C13.805 10.745 17.257 0 21.51 0zm-6.145 2.36c-5.194 4.504-8.651 12.467-8.651 21.535 0 9.067 3.455 17.03 8.655 21.531C6.292 41.661-.003 33.435 0 23.894 0 14.356 6.292 6.129 15.365 2.361zm26.647 14.91c1.098 0 1.986 2.9 1.988 6.483-.002 3.577-.891 6.48-1.99 6.48-1.096 0-1.985-2.9-1.987-6.482-.002-3.58.891-6.482 1.99-6.482z"></path></svg></g><path fill="#4630AB" fill-rule="nonzero" d="M0 9.19L0 9.19L0 7.08Q0 3.74 1.75 1.87Q3.50 0 6.60 0Q9.70 0 11.57 1.87L11.57 1.87Q12.89 3.19 12.89 5.83L12.89 5.83L9.77 5.83Q9.77 2.98 6.72 2.98L6.72 2.98Q5.81 2.98 5.17 3.32Q4.54 3.67 4.22 4.13Q3.91 4.58 3.74 5.47Q3.58 6.36 3.55 6.96Q3.53 7.56 3.53 8.57Q3.53 9.58 3.54 9.92Q3.55 10.27 3.61 11.05Q3.67 11.83 3.80 12.17Q3.94 12.50 4.19 13.03Q4.44 13.56 4.82 13.78L4.82 13.78Q5.81 14.40 7.06 14.40L7.06 14.40Q9.14 14.40 10.01 12.62L10.01 12.62L10.01 11.47L7.94 11.47L7.94 8.69L12.86 8.69L12.86 13.85Q12.12 15.60 10.51 16.49Q8.90 17.38 6.86 17.38L6.86 17.38Q3.24 17.38 1.62 15.35Q0 13.32 0 9.19ZM23.52 11.04L23.52 11.04L23.52 9.79Q23.52 8.02 23.00 7.08Q22.49 6.14 20.86 6.14L20.86 6.14Q18.22 6.14 18.22 9.70L18.22 9.70L18.22 10.94Q18.22 14.76 20.86 14.76L20.86 14.76Q22.56 14.76 23.09 13.49L23.09 13.49Q23.52 12.48 23.52 11.04ZM26.64 10.32L26.64 10.32Q26.64 14.76 24.96 16.27L24.96 16.27Q23.54 17.57 20.86 17.57L20.86 17.57Q17.42 17.57 16.22 15.55L16.22 15.55Q15.10 13.70 15.10 10.32L15.10 10.32Q15.10 7.15 16.22 5.35L16.22 5.35Q17.47 3.34 20.77 3.34Q24.07 3.34 25.36 5.10Q26.64 6.86 26.64 10.32ZM46.46 12.19L46.46 12.19Q46.46 14.62 44.69 16.00Q42.91 17.38 40.15 17.38L40.15 17.38Q37.97 17.38 35.93 16.18L35.93 16.18Q34.92 15.55 34.27 14.41Q33.62 13.27 33.62 11.81L33.62 11.81L36.65 11.66Q36.65 12.96 37.75 13.68Q38.86 14.40 40.20 14.40L40.20 14.40Q43.20 14.40 43.20 12.29L43.20 12.29Q43.20 10.56 41.16 10.25L41.16 10.25L38.38 9.96Q36.29 9.65 35.06 8.47Q33.84 7.30 33.84 5.09Q33.84 2.88 35.59 1.44Q37.34 0 40.02 0Q42.70 0 44.33 1.36Q45.96 2.71 45.96 4.85L45.96 4.85L42.98 4.99Q42.58 2.90 40.18 2.90L40.18 2.90Q38.71 2.90 37.88 3.53Q37.06 4.15 37.06 5.00Q37.06 5.86 37.66 6.35Q38.26 6.84 39.14 6.96L39.14 6.96L41.88 7.25Q46.46 7.87 46.46 12.19ZM55.90 12.22L55.90 12.22L58.73 12.19Q58.70 12.38 58.68 12.89Q58.66 13.39 58.64 13.57Q58.63 13.75 58.58 14.14Q58.54 14.52 58.48 14.70Q58.42 14.88 58.32 15.17L58.32 15.17Q57.89 16.42 55.97 17.14L55.97 17.14Q54.74 17.57 53.41 17.57Q52.08 17.57 51.00 17.14Q49.92 16.70 49.30 16.03L49.30 16.03Q47.88 14.54 47.88 10.45Q47.88 6.36 49.30 4.87L49.30 4.87Q49.92 4.20 51.00 3.77Q52.08 3.34 53.40 3.34L53.40 3.34Q55.99 3.34 57.34 4.63Q58.68 5.93 58.68 8.23L58.68 8.23L55.85 8.23Q55.85 7.18 55.32 6.66Q54.79 6.14 53.36 6.14Q51.94 6.14 51.47 7.03Q51.00 7.92 51.00 9.70L51.00 9.70L51.00 10.94Q51.00 13.80 52.10 14.45L52.10 14.45Q52.61 14.76 53.42 14.76Q54.24 14.76 54.76 14.60Q55.27 14.45 55.50 14.06Q55.73 13.68 55.80 13.31Q55.87 12.94 55.90 12.22ZM68.62 3.58L68.62 3.58L67.75 6.65Q67.39 6.50 66.94 6.50L66.94 6.50Q65.74 6.50 63.98 7.54L63.98 7.54L63.98 17.23L60.86 17.23L60.86 3.53L63.19 3.53L63.91 4.73L67.22 3.36Q67.46 3.34 67.87 3.34Q68.28 3.34 68.62 3.58ZM80.95 3.53L80.95 17.23L78.62 17.23L77.90 15.60L74.06 17.38Q72.46 17.38 71.27 16.19Q70.08 15 70.08 12.72L70.08 12.72L70.08 3.53L73.20 3.53L73.20 12.05Q73.20 14.33 75.02 14.33L75.02 14.33L77.83 12.82L77.83 3.53L80.95 3.53ZM102.12 8.04L102.12 17.23L99 17.23L99 8.71Q99 7.44 98.70 6.94Q98.40 6.43 97.66 6.43L97.66 6.43L94.85 7.61L94.85 17.23L91.73 17.23L91.73 8.71Q91.73 6.43 90.14 6.43L90.14 6.43L87.58 7.61L87.58 17.23L84.46 17.23L84.46 3.53L86.78 3.53L87.50 5.16L91.10 3.38Q92.98 3.38 93.94 5.21L93.94 5.21L98.40 3.38Q100.27 3.38 101.20 4.64Q102.12 5.90 102.12 8.04L102.12 8.04Z" transform="translate(30, 9.217)"></path></svg>